# xmcd CD database file
# Generated: Son Sep 28 00:51:41 2003 by KSCD
# 
# Track frame offsets:
#       150
#       11056
#       24518
#       37500
#       50452
#       62178
#       74163
#       86584
#       108546
#       122427
#       136819
#       148219
#       161752
#       174623
#       186341
#       199021
#       213271
#       226357
#
# Disc length: 3180 seconds
#
# Revision: 0
# Processed by: cddbd v1.4PL0 Copyright (c) Steve Scherf et al.
# Submitted via: Kscd 1.3.3
#
DISCID=030c6a12
DTITLE=Various Artist - The story of Rhythm and Blues [CD8)
DYEAR=1900
DGENRE=
TTITLE0=Jackie Brenson - Hi ho baby 
TTITLE1=Louis Jordan - G.I. jive 
TTITLE2=Dinah Washington - Baby get lost 
TTITLE3=Babs Gonzales - Ooh-pa-pa-dah 
TTITLE4=John Lee Hooker - Juke hop 
TTITLE5=Hawkshaw Hawkins - Dog house boogie 
TTITLE6=Amos Milburn - Roomin' house boogie 
TTITLE7=Muddy Waters - Honky tonk 
TTITLE8=Paul Williams - The hucklebuck 
TTITLE9=Doctor Ross - San Francisco Breakdown 
TTITLE10=Mable Scott - Elevator Boogie 
TTITLE11=Rabon Tarrant and Jack Allstars McVea - Blues with a feeling 
TTITLE12=Little Esther - 'T ain't what you say 
TTITLE13=Paul Williams and Sextette - Waxie maxie 
TTITLE14=Big Jay McNeely - The deacon's hop 
TTITLE15=Howlin' Wolf - Rockin' the blues 
TTITLE16=Arthur 'Big Boy' Crudup - That's all right 
TTITLE17=Louis Jordan - Reet Petite and gone 
EXTD=(c) Digimode Entertainment Ltd. UK 
EXTT0=Brenson 
EXTT1=Mercer 
EXTT2=Feather 
EXTT3=Gonzales 
EXTT4=Hooker 
EXTT5=Hawkins 
EXTT6=Robinson 
EXTT7=Dogett - Scott - Buter 
EXTT8=Gibson - Alfred 
EXTT9=Ross 
EXTT10=Scott 
EXTT11=Tarrent 
EXTT12=Esther 
EXTT13=Williams 
EXTT14=McNeely 
EXTT15=Burnett 
EXTT16=Crudup 
EXTT17=Lee - Jordan 
PLAYORDER=
